# xmcd CD database file
#
# Track frame offsets:
#	150
#	19199
#	40301
#	56683
#	72291
#	85173
#	96354
#	107539
#	123248
#	137850
#	148452
#	159105
#	167610
#	179553
#	201062
#	215107
#	227081
#	241082
#	251217
#	263747
#	292184
#	306389
#	320240
#	332613
#
# Disc length: 4572 seconds
#
# Revision: 2
# Processed by: cddbd v1.5.2PL0 Copyright (c) Steve Scherf et al.
# Submitted via: CDex 1.70beta2
#
DISCID=7211da18
DTITLE=Johnny Cash - American Outtakes
DYEAR=2003
DGENRE=Country
TTITLE0=Cowboy's Prayer, Oh Bury Me Not (Take 1)
TTITLE1=Cowboy's Prayer, Oh Bury Me Not (Take 2)
TTITLE2=Just The Other Side Of Nowhere (Take 1)
TTITLE3=Just The Other Side Of Nowhere (Take 2)
TTITLE4=Drive On
TTITLE5=Delia's Gone (Take 1)
TTITLE6=Delia's Hone (Take 2)
TTITLE7=Long Black Veil
TTITLE8=The Fourth Man
TTITLE9=Why Me (Take 1)
TTITLE10=Why Me (Take 2)
TTITLE11=Waiting For A Train
TTITLE12=Flesh And Blood
TTITLE13=Like A Soldier
TTITLE14=Go Where I SendTthee
TTITLE15=Loving Her Was Easier (Take 1)
TTITLE16=Loving Her Was Easier (Take 2)
TTITLE17=T For Texas (Take 1)
TTITLE18=T For Texas (Take 2)
TTITLE19=DownTthere By The Train
TTITLE20=East Virginia Blue
TTITLE21=Thirteen
TTITLE22=The Beast In Me
TTITLE23=What On Earth
EXTD=YEAR: 2003
EXTT0=
EXTT1=
EXTT2=
EXTT3=
EXTT4=
EXTT5=
EXTT6=
EXTT7=
EXTT8=
EXTT9=
EXTT10=
EXTT11=
EXTT12=
EXTT13=
EXTT14=
EXTT15=
EXTT16=
EXTT17=
EXTT18=
EXTT19=
EXTT20=
EXTT21=
EXTT22=
EXTT23=
PLAYORDER=
